<svg width="72" height="72" viewBox="0 0 72 72" fill="none" xmlns="http://www.w3.org/2000/svg">
<path d="M68 42H61.276C60.628 44.738 59.548 47.302 58.112 49.628L62.87 54.386C64.432 55.948 64.432 58.482 62.87 60.044L60.042 62.872C58.48 64.434 55.948 64.434 54.386 62.872L49.628 58.114C47.3 59.55 44.738 60.628 42 61.276V68C42 70.208 40.208 72 38 72H34C31.792 72 30 70.208 30 68V61.276C27.262 60.628 24.698 59.548 22.372 58.112L17.616 62.87C16.054 64.432 13.52 64.432 11.96 62.87L9.13 60.042C7.568 58.48 7.568 55.946 9.128 54.384L13.886 49.626C12.45 47.3 11.372 44.736 10.724 42H4C1.792 42 0 40.208 0 38V34C0 31.792 1.792 30 4 30H10.724C11.372 27.264 12.452 24.7 13.888 22.374L9.13 17.616C7.57 16.056 7.57 13.52 9.132 11.958L11.96 9.13C13.52 7.57 16.054 7.57 17.616 9.13L22.374 13.888C24.7 12.45 27.264 11.372 30.002 10.724V4C30.002 1.792 31.794 0 34.002 0H38.002C40.21 0 42.002 1.792 42.002 4V10.724C44.738 11.372 47.302 12.452 49.628 13.888L54.386 9.13C55.948 7.568 58.48 7.568 60.042 9.13L62.87 11.958C64.432 13.52 64.432 16.054 62.87 17.616L58.112 22.374C59.55 24.7 60.628 27.264 61.276 30.002H68C70.208 30.002 72 31.794 72 34.002V38.002C72 40.208 70.208 42 68 42ZM36 20C27.164 20 20 27.164 20 36C20 44.836 27.164 52 36 52C44.836 52 52 44.836 52 36C52 27.164 44.836 20 36 20Z" fill="white"/>
</svg>
